<svg width="251" height="176" viewBox="0 0 251 176" fill="none" xmlns="http://www.w3.org/2000/svg">
<g filter="url(#filter0_d_8_588)">
<rect x="40.5" y="10" width="170" height="96" rx="16" fill="white"/>
</g>
<path fill-rule="evenodd" clip-rule="evenodd" d="M141.7 51.3099L139.7 47.9299L136.15 49.6199L134.15 46.2299L130.6 47.9299L128.61 44.5299L125.06 46.2299L123.06 42.8399L119.51 44.5399L117.52 41.1399L113.96 42.8399L106.43 67.3599L115.58 70.1599C115.925 69.0547 116.653 68.1093 117.634 67.4944C118.615 66.8796 119.784 66.6359 120.928 66.8074C122.073 66.9789 123.119 67.5542 123.877 68.4295C124.635 69.3048 125.054 70.4222 125.06 71.5799V71.6799C125.08 72.1199 125.03 72.5599 124.9 72.9999L134.2 75.8499L141.7 51.3099Z" fill="#D61920"/>
<path fill-rule="evenodd" clip-rule="evenodd" d="M114.28 65.34C114.049 65.3017 113.839 65.1818 113.688 65.002C113.538 64.8222 113.457 64.5944 113.46 64.36V52.36C113.459 52.2283 113.484 52.0976 113.533 51.9757C113.583 51.8538 113.657 51.743 113.75 51.6499C113.843 51.5568 113.954 51.4832 114.076 51.4334C114.198 51.3836 114.328 51.3586 114.46 51.36H123.13C123.641 51.3587 124.147 51.458 124.619 51.6523C125.092 51.8465 125.521 52.132 125.884 52.4923C126.246 52.8525 126.533 53.2806 126.73 53.7521C126.927 54.2236 127.029 54.7291 127.03 55.24V64.36C127.03 64.5073 126.997 64.6527 126.934 64.7858C126.871 64.9189 126.779 65.0365 126.666 65.1301C126.552 65.2237 126.419 65.2911 126.276 65.3274C126.134 65.3637 125.985 65.368 125.84 65.34C125.61 65.2996 125.403 65.1788 125.254 64.9992C125.106 64.8196 125.026 64.593 125.03 64.36V55.25C125.03 54.7461 124.83 54.2628 124.473 53.9065C124.117 53.5502 123.634 53.35 123.13 53.35H121.24V64.35C121.241 64.484 121.215 64.6167 121.163 64.7404C121.111 64.8641 121.036 64.9762 120.94 65.07C120.826 65.1829 120.687 65.2664 120.533 65.3135C120.38 65.3605 120.218 65.3696 120.06 65.34C119.829 65.3017 119.619 65.1818 119.468 65.002C119.318 64.8222 119.237 64.5944 119.24 64.36V53.35H115.46V64.35C115.461 64.4971 115.429 64.6426 115.368 64.7761C115.306 64.9096 115.215 65.0279 115.103 65.1224C114.99 65.217 114.858 65.2855 114.716 65.3231C114.573 65.3607 114.425 65.3665 114.28 65.34ZM128.7 70.57C128.467 70.5315 128.256 70.4101 128.105 70.2282C127.954 70.0463 127.874 69.8161 127.88 69.58C127.881 69.3176 127.985 69.0662 128.17 68.88C128.355 68.6916 128.606 68.5837 128.87 68.58C129.72 68.58 130.45 68.04 130.69 67.23L131.72 63.8L128.35 52.53C128.31 52.4039 128.295 52.2712 128.306 52.1394C128.318 52.0076 128.355 51.8794 128.417 51.7622C128.478 51.645 128.562 51.5411 128.664 51.4566C128.766 51.3722 128.883 51.3087 129.01 51.27C129.262 51.2002 129.531 51.2297 129.762 51.3525C129.992 51.4753 130.167 51.682 130.25 51.93L132.75 60.33L135.29 51.93C135.41 51.47 135.92 51.16 136.44 51.26L136.51 51.27C137.05 51.44 137.35 52.01 137.19 52.54L133.72 64.1L132.62 67.8C132.373 68.5962 131.884 69.2955 131.22 69.8C130.545 70.3063 129.724 70.58 128.88 70.58C128.82 70.5823 128.759 70.5789 128.7 70.57Z" fill="#FEFEFE"/>
<path fill-rule="evenodd" clip-rule="evenodd" d="M67.58 63.1499H69.54C70.0625 63.1499 70.5635 62.9423 70.933 62.5729C71.3024 62.2034 71.51 61.7023 71.51 61.1799V55.4099C71.5113 55.1512 71.4616 54.8947 71.3639 54.6552C71.2661 54.4157 71.1221 54.1978 70.9401 54.0139C70.7581 53.8301 70.5416 53.6839 70.3031 53.5836C70.0646 53.4834 69.8087 53.4312 69.55 53.4299H67.58V63.1299V63.1499ZM66.35 65.2099C66.1099 65.1693 65.8922 65.0442 65.7363 64.8571C65.5804 64.67 65.4966 64.4334 65.5 64.1899V46.2699C65.4982 46.1328 65.5238 45.9967 65.5754 45.8696C65.6269 45.7425 65.7032 45.627 65.8 45.5299C65.917 45.4083 66.0621 45.3174 66.2226 45.2651C66.383 45.2128 66.5538 45.2007 66.72 45.2299C67.22 45.3299 67.58 45.7499 67.58 46.2599V51.3599H69.54C70.0714 51.3586 70.5978 51.4621 71.0891 51.6645C71.5804 51.867 72.0269 52.1643 72.4032 52.5396C72.7794 52.9149 73.0778 53.3607 73.2815 53.8515C73.4852 54.3423 73.59 54.8685 73.59 55.3999V61.1699C73.5873 62.2405 73.1608 63.2666 72.4038 64.0237C71.6467 64.7807 70.6206 65.2072 69.55 65.2099H66.54C66.4731 65.2138 66.4061 65.2105 66.34 65.1999L66.35 65.2099Z" fill="#333545"/>
<path fill-rule="evenodd" clip-rule="evenodd" d="M80.64 53.3499C80.5277 53.3303 80.414 53.3203 80.3 53.3199C80.0406 53.3172 79.7832 53.3664 79.543 53.4644C79.3028 53.5625 79.0845 53.7075 78.9011 53.891C78.7176 54.0744 78.5726 54.2927 78.4745 54.5329C78.3765 54.7731 78.3273 55.0305 78.33 55.2899V61.2999C78.3287 61.559 78.3787 61.8158 78.4773 62.0554C78.5758 62.295 78.7209 62.5127 78.9041 62.6959C79.0873 62.8791 79.305 63.0241 79.5446 63.1227C79.7842 63.2212 80.0409 63.2712 80.3 63.2699C80.8225 63.2699 81.3236 63.0624 81.693 62.6929C82.0625 62.3235 82.27 61.8224 82.27 61.2999V55.2999C82.27 54.3299 81.58 53.5199 80.64 53.3499ZM79.59 65.2999C78.6524 65.135 77.8032 64.6442 77.1921 63.9142C76.5811 63.1842 76.2474 62.2619 76.25 61.3099V55.2999C76.2483 54.768 76.3526 54.2411 76.5569 53.75C76.7613 53.259 77.0615 52.8136 77.44 52.4399C77.8155 52.0645 78.2615 51.767 78.7523 51.5645C79.2431 51.362 79.7691 51.2585 80.3 51.2599C81.3715 51.2599 82.3991 51.6856 83.1567 52.4432C83.9144 53.2009 84.34 54.2284 84.34 55.2999V61.3099C84.34 62.3899 83.92 63.4099 83.15 64.1799C82.7761 64.5546 82.3318 64.8517 81.8427 65.0541C81.3536 65.2566 80.8294 65.3606 80.3 65.3599C80.062 65.3609 79.8245 65.3408 79.59 65.2999ZM91.39 53.3599C91.2778 53.3402 91.164 53.3302 91.05 53.3299C90.7906 53.3272 90.5332 53.3764 90.293 53.4744C90.0528 53.5725 89.8345 53.7175 89.6511 53.901C89.4676 54.0844 89.3226 54.3027 89.2245 54.5429C89.1265 54.7831 89.0773 55.0405 89.08 55.2999V61.3099C89.0787 61.569 89.1287 61.8258 89.2273 62.0654C89.3258 62.305 89.4709 62.5227 89.6541 62.7059C89.8373 62.8891 90.055 63.0341 90.2946 63.1327C90.5342 63.2312 90.7909 63.2812 91.05 63.2799C91.3091 63.2812 91.5659 63.2312 91.8055 63.1327C92.0451 63.0341 92.2628 62.8891 92.446 62.7059C92.6292 62.5227 92.7742 62.305 92.8728 62.0654C92.9713 61.8258 93.0213 61.569 93.02 61.3099V55.2999C93.02 54.3399 92.33 53.5299 91.39 53.3599ZM90.34 65.2999C89.4043 65.1329 88.5574 64.6412 87.9483 63.9114C87.3392 63.1816 87.007 62.2605 87.01 61.3099V55.2999C87.0116 54.7106 87.1418 54.1287 87.3915 53.5948C87.6412 53.061 88.0043 52.5881 88.4557 52.2091C88.907 51.8301 89.4357 51.5542 90.0046 51.4006C90.5736 51.247 91.1693 51.2195 91.75 51.3199C92.6878 51.4825 93.538 51.9708 94.1509 52.699C94.7637 53.4271 95.0999 54.3482 95.1 55.2999V61.3099C95.1012 61.8441 94.9957 62.3732 94.7897 62.866C94.5836 63.3589 94.2811 63.8056 93.9 64.1799C93.5261 64.5546 93.0818 64.8517 92.5927 65.0541C92.1036 65.2566 91.5794 65.3606 91.05 65.3599C90.81 65.3599 90.57 65.3399 90.34 65.2999ZM98.61 65.3399C98.3699 65.2994 98.1522 65.1742 97.9963 64.9872C97.8404 64.8001 97.7566 64.5634 97.76 64.3199V46.2699C97.76 45.9899 97.86 45.7199 98.06 45.5299C98.178 45.4135 98.3223 45.3272 98.4807 45.2785C98.6392 45.2297 98.807 45.2199 98.97 45.2499C99.47 45.3299 99.84 45.7599 99.84 46.2699V56.9499L104.62 51.5899C104.86 51.3299 105.22 51.2099 105.58 51.2699C105.762 51.3003 105.932 51.3787 106.073 51.4971C106.213 51.6155 106.32 51.7694 106.381 51.943C106.443 52.1165 106.456 52.3033 106.421 52.4839C106.385 52.6645 106.302 52.8323 106.18 52.9699L102.57 56.9999L106.3 63.8299C106.367 63.9451 106.411 64.0726 106.428 64.2048C106.445 64.337 106.436 64.4714 106.4 64.5999C106.361 64.7324 106.296 64.8556 106.209 64.9622C106.121 65.0688 106.013 65.1564 105.89 65.2199C105.678 65.3416 105.43 65.3842 105.19 65.3399C105.041 65.3147 104.899 65.2568 104.774 65.1703C104.65 65.0839 104.546 64.9711 104.47 64.8399L101.11 58.6599L99.83 60.0699V64.3199C99.83 64.5957 99.7204 64.8603 99.5254 65.0553C99.3304 65.2503 99.0658 65.3599 98.79 65.3599C98.72 65.3599 98.66 65.3599 98.59 65.3399H98.61ZM144.42 65.3299C143.858 65.2357 143.323 65.0172 142.856 64.6902C142.389 64.3632 142.001 63.9361 141.72 63.4399C141.583 63.1968 141.547 62.9093 141.62 62.6399C141.7 62.3799 141.87 62.1599 142.1 62.0199C142.314 61.9032 142.561 61.8644 142.8 61.9099C143.1 61.9599 143.37 62.1399 143.52 62.4099C143.79 62.8699 144.22 63.1699 144.75 63.2599C145.023 63.3074 145.304 63.2925 145.57 63.2163C145.837 63.1401 146.083 63.0046 146.29 62.8199C146.69 62.4499 146.89 61.9199 146.84 61.3999C146.829 61.1334 146.755 60.8732 146.625 60.6404C146.495 60.4076 146.311 60.2088 146.09 60.0599L143.29 58.0699C142.834 57.7496 142.454 57.3326 142.177 56.8486C141.901 56.3646 141.734 55.8256 141.69 55.2699C141.654 54.7093 141.746 54.1478 141.959 53.628C142.172 53.1082 142.501 52.6438 142.92 52.2699C143.329 51.8896 143.818 51.6052 144.351 51.4374C144.883 51.2697 145.447 51.2227 146 51.2999C147.18 51.4999 148.14 52.1799 148.69 53.1399C148.823 53.3798 148.857 53.6617 148.786 53.9265C148.715 54.1912 148.545 54.4183 148.31 54.5599C148.098 54.6816 147.85 54.7242 147.61 54.6799C147.461 54.6547 147.319 54.5968 147.194 54.5103C147.07 54.4239 146.966 54.3111 146.89 54.1799C146.765 53.9678 146.594 53.786 146.39 53.6477C146.186 53.5094 145.954 53.4179 145.71 53.3799C145.461 53.3348 145.205 53.3484 144.962 53.4196C144.719 53.4907 144.495 53.6175 144.31 53.7899C144.129 53.9608 143.988 54.1694 143.896 54.401C143.804 54.6325 143.765 54.8814 143.78 55.1299C143.8 55.6199 144.08 56.0999 144.5 56.3799L147.3 58.3299C147.775 58.6627 148.168 59.0997 148.449 59.6074C148.73 60.1152 148.891 60.6804 148.92 61.2599C148.966 61.8367 148.877 62.4163 148.66 62.9528C148.443 63.4892 148.104 63.9676 147.67 64.3499C147.248 64.7424 146.743 65.0358 146.193 65.2088C145.643 65.3818 145.061 65.43 144.49 65.3499L144.41 65.3299H144.42ZM152.45 65.3599C152.21 65.3177 151.992 65.1924 151.835 65.006C151.678 64.8195 151.591 64.5838 151.59 64.3399V46.2899C151.589 46.153 151.615 46.0171 151.666 45.8903C151.718 45.7636 151.795 45.6484 151.892 45.5515C151.988 45.4547 152.104 45.3781 152.23 45.3264C152.357 45.2746 152.493 45.2486 152.63 45.2499L152.83 45.2599C153.33 45.3599 153.67 45.7699 153.67 46.2899V51.3899H155.64C156.171 51.3886 156.697 51.4922 157.188 51.6948C157.678 51.8973 158.124 52.1948 158.5 52.5703C158.875 52.9457 159.173 53.3916 159.375 53.8823C159.578 54.3731 159.681 54.899 159.68 55.4299V64.3299C159.681 64.4809 159.649 64.6302 159.585 64.7673C159.522 64.9045 159.429 65.026 159.314 65.1233C159.198 65.2206 159.063 65.2914 158.917 65.3305C158.771 65.3697 158.619 65.3763 158.47 65.3499C157.97 65.2599 157.61 64.8299 157.61 64.3199V55.4199C157.61 55.1617 157.559 54.906 157.46 54.6675C157.361 54.4291 157.215 54.2126 157.032 54.0304C156.849 53.8483 156.632 53.7041 156.393 53.6062C156.154 53.5083 155.898 53.4586 155.64 53.4599H153.67V64.3299C153.671 64.4819 153.639 64.6323 153.575 64.7702C153.511 64.9082 153.417 65.0303 153.301 65.1278C153.184 65.2253 153.047 65.2958 152.9 65.3342C152.753 65.3726 152.599 65.378 152.45 65.3499V65.3599ZM166.73 53.3699C166.447 53.3185 166.155 53.3301 165.877 53.404C165.599 53.4779 165.34 53.6123 165.119 53.7975C164.899 53.9827 164.722 54.2143 164.601 54.4757C164.48 54.7371 164.418 55.0219 164.42 55.3099V61.3199C164.419 61.5781 164.468 61.8341 164.566 62.073C164.664 62.312 164.808 62.5292 164.991 62.7123C165.173 62.8954 165.389 63.0406 165.628 63.1398C165.866 63.2389 166.122 63.2899 166.38 63.2899C166.9 63.2899 167.4 63.0899 167.77 62.7199C167.955 62.5371 168.102 62.319 168.202 62.0786C168.301 61.8381 168.352 61.5802 168.35 61.3199V55.2999C168.35 54.3399 167.67 53.5199 166.72 53.3599L166.73 53.3699ZM165.67 65.2899C164.735 65.125 163.888 64.6353 163.279 63.9072C162.67 63.1791 162.337 62.2593 162.34 61.3099V55.2999C162.34 54.7097 162.469 54.1267 162.718 53.5916C162.967 53.0565 163.33 52.5824 163.782 52.2023C164.233 51.8222 164.763 51.5454 165.332 51.3913C165.902 51.2371 166.498 51.2094 167.08 51.3099C168.019 51.4728 168.871 51.9626 169.484 52.6928C170.097 53.423 170.432 54.3465 170.43 55.2999V61.3099C170.43 61.8425 170.325 62.3698 170.119 62.861C169.912 63.3521 169.61 63.7971 169.23 64.1699C168.771 64.6305 168.208 64.973 167.588 65.1681C166.968 65.3631 166.31 65.4049 165.67 65.2899Z" fill="#333545"/>
<path fill-rule="evenodd" clip-rule="evenodd" d="M186.4 52.5398C186.434 52.4128 186.443 52.2802 186.426 52.1498C186.409 52.0194 186.366 51.8937 186.3 51.7798C186.224 51.6584 186.125 51.5534 186.009 51.471C185.892 51.3885 185.76 51.3303 185.62 51.2998C185.362 51.251 185.095 51.3026 184.874 51.4438C184.653 51.585 184.494 51.8054 184.43 52.0598C184.43 52.1098 183.31 56.6198 182.43 60.0498L182.41 60.1198L182.39 60.0498L180.39 52.0698C180.352 51.875 180.254 51.6967 180.111 51.559C179.968 51.4213 179.786 51.3308 179.59 51.2998C179.531 51.2881 179.47 51.2814 179.41 51.2798C178.95 51.2798 178.55 51.5998 178.42 52.0598C178.41 52.1098 177.29 56.6198 176.42 60.0498L176.4 60.1198L176.38 60.0498C175.53 56.6198 174.38 52.1098 174.38 52.0598C174.333 51.8684 174.231 51.6947 174.088 51.5599C173.944 51.425 173.764 51.3346 173.57 51.2998C173.404 51.2704 173.232 51.2828 173.072 51.3359C172.911 51.389 172.767 51.4812 172.651 51.6042C172.535 51.7272 172.451 51.8771 172.407 52.0404C172.363 52.2037 172.361 52.3753 172.4 52.5398L175.41 64.5698C175.467 64.7902 175.595 64.9859 175.773 65.1268C175.952 65.2677 176.172 65.3461 176.4 65.3498C176.89 65.3498 177.28 65.0298 177.38 64.5698L179.38 56.5798L179.41 56.5098L179.43 56.5798C180.31 60.0498 181.43 64.5798 181.43 64.5798C181.49 64.796 181.617 64.9874 181.793 65.1259C181.97 65.2645 182.186 65.3429 182.41 65.3498C182.64 65.357 182.866 65.2827 183.047 65.14C183.228 64.9974 183.353 64.7955 183.4 64.5698L186.4 52.5398Z" fill="#333545"/>
<defs>
<filter id="filter0_d_8_588" x="0.5" y="0" width="250" height="176" filterUnits="userSpaceOnUse" color-interpolation-filters="sRGB">
<feFlood flood-opacity="0" result="BackgroundImageFix"/>
<feColorMatrix in="SourceAlpha" type="matrix" values="0 0 0 0 0 0 0 0 0 0 0 0 0 0 0 0 0 0 127 0" result="hardAlpha"/>
<feOffset dy="30"/>
<feGaussianBlur stdDeviation="20"/>
<feColorMatrix type="matrix" values="0 0 0 0 0.831373 0 0 0 0 0.85098 0 0 0 0 0.909804 0 0 0 0.2 0"/>
<feBlend mode="normal" in2="BackgroundImageFix" result="effect1_dropShadow_8_588"/>
<feBlend mode="normal" in="SourceGraphic" in2="effect1_dropShadow_8_588" result="shape"/>
</filter>
</defs>
</svg>
