<svg width="171" height="96" viewBox="0 0 171 96" fill="none" xmlns="http://www.w3.org/2000/svg">
<g clip-path="url(#clip0_8_625)">
<g filter="url(#filter0_d_8_625)">
<rect x="0.5" width="170" height="96" rx="16" fill="white"/>
</g>
<g clip-path="url(#clip1_8_625)">
<path fill-rule="evenodd" clip-rule="evenodd" d="M98.3991 57.0249C92.4136 61.5732 83.738 63.9999 76.2684 63.9999C65.7949 63.9999 56.3661 60.0063 49.2328 53.3641C48.6724 52.8417 49.1745 52.1299 49.847 52.5367C57.5453 57.1543 67.0638 59.9323 76.8961 59.9323C83.5273 59.9323 90.822 58.5179 97.5293 55.5827C98.5426 55.139 99.39 56.2668 98.3991 57.0249Z" fill="#FF9900"/>
<path fill-rule="evenodd" clip-rule="evenodd" d="M100.888 54.0898C100.126 53.0821 95.8304 53.6137 93.9025 53.8494C93.3152 53.9234 93.2255 53.3964 93.7545 53.0174C97.1755 50.5352 102.789 51.2517 103.443 52.0837C104.098 52.9203 103.273 58.7213 100.058 61.49C99.5652 61.9153 99.0944 61.6888 99.3141 61.1249C100.036 59.2667 101.654 55.1021 100.888 54.0898Z" fill="#FF9900"/>
<path fill-rule="evenodd" clip-rule="evenodd" d="M94.0369 35.4944V33.0816C94.0369 32.7164 94.3059 32.4714 94.6287 32.4714H105.107C105.443 32.4714 105.712 32.721 105.712 33.0816V35.1477C105.707 35.4944 105.425 35.9474 104.923 36.6638L99.4933 44.6557C101.511 44.6049 103.641 44.9146 105.47 45.9777C105.882 46.2181 105.994 46.5694 106.026 46.916V49.4906C106.026 49.8419 105.649 50.2533 105.255 50.0407C102.031 48.2981 97.7492 48.1086 94.1848 50.0592C93.8216 50.2626 93.4406 49.8558 93.4406 49.5045V47.0593C93.4406 46.6664 93.445 45.9962 93.8261 45.3999L100.117 36.0999H94.6421C94.3059 36.0999 94.0369 35.8549 94.0369 35.4944Z" fill="black"/>
<path fill-rule="evenodd" clip-rule="evenodd" d="M55.8147 50.5492H52.6269C52.322 50.5261 52.0799 50.2904 52.0575 49.99V33.1233C52.0575 32.7859 52.331 32.5178 52.6717 32.5178H55.6443C55.9537 32.5316 56.2003 32.7766 56.2227 33.0817V35.2865H56.281C57.0566 33.1557 58.5138 32.1619 60.4776 32.1619C62.4727 32.1619 63.7191 33.1557 64.6158 35.2865C65.387 33.1557 67.1401 32.1619 69.0187 32.1619C70.3548 32.1619 71.8164 32.7304 72.7086 34.0062C73.7174 35.4252 73.5112 37.4867 73.5112 39.294L73.5067 49.9391C73.5067 50.2765 73.2332 50.5492 72.8924 50.5492H69.7091C69.3908 50.5261 69.1352 50.2627 69.1352 49.9391V40.9996C69.1352 40.2878 69.198 38.5129 69.0456 37.838C68.8079 36.7056 68.0951 36.3866 67.1715 36.3866C66.4003 36.3866 65.5933 36.9182 65.266 37.7687C64.9387 38.6192 64.97 40.0428 64.97 40.9996V49.9391C64.97 50.2765 64.6966 50.5492 64.3558 50.5492H61.1725C60.8497 50.5261 60.5986 50.2627 60.5986 49.9391L60.5941 40.9996C60.5941 39.1184 60.8945 36.3496 58.6303 36.3496C56.3393 36.3496 56.4289 39.049 56.4289 40.9996V49.9391C56.4289 50.2765 56.1554 50.5492 55.8147 50.5492" fill="black"/>
<path fill-rule="evenodd" clip-rule="evenodd" d="M114.733 32.1619C119.463 32.1619 122.023 36.3496 122.023 41.6745C122.023 46.8191 119.194 50.9005 114.733 50.9005C110.088 50.9005 107.559 46.7128 107.559 41.4942C107.559 36.2433 110.119 32.1619 114.733 32.1619ZM114.76 35.6055C112.41 35.6055 112.262 38.9058 112.262 40.9627C112.262 43.0242 112.231 47.4246 114.733 47.4246C117.203 47.4246 117.32 43.8747 117.32 41.7115C117.32 40.2878 117.261 38.5868 116.844 37.2371C116.486 36.0631 115.773 35.6055 114.76 35.6055Z" fill="black"/>
<path fill-rule="evenodd" clip-rule="evenodd" d="M128.156 50.5492H124.982C124.664 50.5261 124.408 50.2627 124.408 49.9391L124.404 33.0678C124.431 32.7581 124.695 32.5178 125.018 32.5178H127.973C128.251 32.5316 128.479 32.7258 128.542 32.9893V35.5685H128.6C129.492 33.262 130.743 32.1619 132.945 32.1619C134.375 32.1619 135.769 32.6934 136.666 34.1494C137.5 35.4991 137.5 37.7687 137.5 39.4003V50.0177C137.464 50.3135 137.2 50.5492 136.886 50.5492H133.689C133.398 50.5261 133.156 50.3043 133.124 50.0177V40.8564C133.124 39.0121 133.33 36.3127 131.129 36.3127C130.353 36.3127 129.64 36.8488 129.286 37.6624C128.838 38.6931 128.78 39.7193 128.78 40.8564V49.9391C128.775 50.2765 128.497 50.5492 128.156 50.5492" fill="black"/>
<path fill-rule="evenodd" clip-rule="evenodd" d="M85.684 42.4926C85.684 43.7729 85.7154 44.8407 85.0877 45.9777C84.5811 46.9022 83.774 47.4707 82.8818 47.4707C81.6578 47.4707 80.9404 46.5093 80.9404 45.0903C80.9404 42.2892 83.375 41.7807 85.684 41.7807V42.4926ZM88.8987 50.5029C88.688 50.6971 88.3831 50.7109 88.1455 50.5815C87.0873 49.6756 86.8946 49.2549 86.3162 48.3906C84.5676 50.2302 83.3257 50.7803 81.0615 50.7803C78.3759 50.7803 76.291 49.0747 76.291 45.6588C76.291 42.9918 77.6899 41.1752 79.6895 40.2877C81.4202 39.5019 83.8368 39.3633 85.684 39.146V38.7208C85.684 37.9396 85.7423 37.0152 85.2939 36.3403C84.9084 35.7348 84.1641 35.4852 83.505 35.4852C82.29 35.4852 81.2094 36.1277 80.9449 37.4589C80.8911 37.7547 80.6804 38.0459 80.389 38.0598L77.2998 37.7177C77.0398 37.6577 76.7483 37.4404 76.8246 37.029C77.533 33.1648 80.9225 32 83.9534 32C85.5047 32 87.5312 32.4252 88.7552 33.6363C90.3065 35.1293 90.1586 37.1215 90.1586 39.2893V44.4108C90.1586 45.95 90.7773 46.6249 91.3601 47.4569C91.5619 47.7527 91.6067 48.1086 91.3467 48.3305C90.6966 48.8898 89.5398 49.9298 88.9032 50.5122L88.8987 50.5029" fill="black"/>
<path fill-rule="evenodd" clip-rule="evenodd" d="M43.893 42.4928C43.893 43.7732 43.9244 44.8409 43.2967 45.978C42.79 46.9024 41.9875 47.471 41.0908 47.471C39.8668 47.471 39.1539 46.5095 39.1539 45.0905C39.1539 42.2894 41.5884 41.781 43.893 41.781V42.4928ZM47.1077 50.5032C46.8969 50.6973 46.5921 50.7112 46.3544 50.5818C45.2963 49.6758 45.108 49.2552 44.5252 48.3908C42.7766 50.2305 41.5391 50.7805 39.2705 50.7805C36.5893 50.7805 34.5 49.0749 34.5 45.6591C34.5 42.992 35.9033 41.1755 37.8985 40.288C39.6291 39.5022 42.0458 39.3635 43.893 39.1463V38.721C43.893 37.9399 43.9513 37.0154 43.5074 36.3406C43.1173 35.735 42.3731 35.4854 41.7185 35.4854C40.5034 35.4854 39.4184 36.1279 39.1539 37.4591C39.1001 37.755 38.8894 38.0462 38.6024 38.06L35.5088 37.718C35.2487 37.6579 34.9618 37.4407 35.0335 37.0293C35.7464 33.1651 39.1315 32.0002 42.1623 32.0002C43.7136 32.0002 45.7402 32.4255 46.9642 33.6365C48.5155 35.1295 48.3675 37.1217 48.3675 39.2896V44.411C48.3675 45.9503 48.9863 46.6251 49.5691 47.4571C49.7754 47.7529 49.8202 48.1089 49.5602 48.3307C48.91 48.89 47.7533 49.93 47.1166 50.5124L47.1077 50.5032" fill="black"/>
</g>
</g>
<defs>
<filter id="filter0_d_8_625" x="-39.5" y="-10" width="250" height="176" filterUnits="userSpaceOnUse" color-interpolation-filters="sRGB">
<feFlood flood-opacity="0" result="BackgroundImageFix"/>
<feColorMatrix in="SourceAlpha" type="matrix" values="0 0 0 0 0 0 0 0 0 0 0 0 0 0 0 0 0 0 127 0" result="hardAlpha"/>
<feOffset dy="30"/>
<feGaussianBlur stdDeviation="20"/>
<feColorMatrix type="matrix" values="0 0 0 0 0.831373 0 0 0 0 0.85098 0 0 0 0 0.909804 0 0 0 0.2 0"/>
<feBlend mode="normal" in2="BackgroundImageFix" result="effect1_dropShadow_8_625"/>
<feBlend mode="normal" in="SourceGraphic" in2="effect1_dropShadow_8_625" result="shape"/>
</filter>
<clipPath id="clip0_8_625">
<rect width="170" height="96" fill="white" transform="translate(0.5)"/>
</clipPath>
<clipPath id="clip1_8_625">
<rect width="103" height="32" fill="white" transform="translate(34.5 32)"/>
</clipPath>
</defs>
</svg>
