<svg width="251" height="176" viewBox="0 0 251 176" fill="none" xmlns="http://www.w3.org/2000/svg">
<g filter="url(#filter0_d_8_618)">
<rect x="40.5" y="10" width="170" height="96" rx="16" fill="white"/>
</g>
<g clip-path="url(#clip0_8_618)">
<path fill-rule="evenodd" clip-rule="evenodd" d="M162.876 56.8408L156.639 67.6751L151.317 67.6963L162.876 47.3038L174.392 67.6963H168.986L162.876 56.8397V56.8408ZM146.081 62.9799H152.041L149.274 67.6963H141.506L141.527 61.9535V47.4292H146.103L146.082 62.9799H146.081ZM129.735 47.4302C135.418 47.4515 140.016 51.9777 139.995 57.5728C139.974 63.1478 135.376 67.6751 129.692 67.6751C124.03 67.6538 119.433 63.1276 119.433 57.5314C119.454 51.9565 124.051 47.4302 129.735 47.4302ZM129.714 62.9597C132.757 62.9597 135.204 60.5489 135.204 57.5728C135.226 54.5978 132.757 52.1658 129.735 52.1658C126.712 52.1445 124.243 54.5766 124.243 57.5527C124.222 60.5277 126.691 62.9597 129.713 62.9597H129.714ZM110.961 55.9632C110.898 55.1238 110.684 54.0135 110.365 52.9457C109.708 50.74 108.566 48.7124 107.023 47.0137C106.214 46.134 105.299 45.3158 103.936 44.3522C102.896 43.8349 101.874 43.2828 100.872 42.6968C100.212 42.3196 99.4237 41.8574 98.3815 41.5227C97.1458 41.2286 95.8826 41.0673 94.6132 41.0414C93.3803 40.9989 92.1443 41.1052 90.9525 41.3347C89.6964 41.544 88.6531 41.8787 87.2695 42.2144C84.1399 43.5765 81.7141 45.6303 79.6277 48.3557C72.3483 58.6035 78.9259 72.96 91.08 74.6568C93.0811 74.9298 95.0821 74.8247 96.9758 74.3848L98.3172 74.0288C98.3594 74.0076 98.4236 73.9863 98.4658 73.9863L99.999 73.3998C100.083 73.3573 100.148 73.3361 100.233 73.2947L100.872 73.0014C102.097 72.3917 103.247 71.6393 104.298 70.7595C103.341 71.6364 102.3 72.4155 101.191 73.0853L101.254 73.1278C101.468 73.0641 101.659 73.0014 101.872 72.96C101.872 72.96 101.872 73.2947 101.829 73.232C101.489 73.4838 102.021 73.2532 102.702 72.8962C103.384 72.5403 104.043 72.0993 104.639 71.5968C105.512 70.8637 106.278 70.0668 107.364 68.7684C108.47 66.8187 109.855 65.1208 110.493 62.8365C110.706 62.2287 110.897 61.5168 111.026 60.7827C111.152 60.0495 111.238 59.2952 111.238 58.5195C111.217 57.7439 111.132 56.947 110.961 55.9632ZM95.2097 73.1905C98.9347 72.603 102.063 70.529 104.618 67.6995C105.321 66.6721 105.874 65.7286 106.554 64.7022C107.406 62.6059 107.343 60.7412 107.619 59.4216C107.96 57.031 107.151 55.1036 106.47 53.0498C105.427 50.6602 104.043 48.8795 101.617 47.4961C95.4857 43.6817 87.142 44.7495 83.162 50.4509C83.1409 50.4509 83.0334 50.5975 82.8206 50.8908C83.0977 49.7178 83.8006 49.0261 84.5024 48.3546C86.5888 46.6365 89.0156 45.2733 91.7828 44.604C94.9125 44.2682 98.019 44.604 100.807 45.9661C104.98 48.3546 107.747 52.1073 108.449 56.5486V60.6573C107.577 67.385 101.829 72.4988 95.2097 73.1905ZM110.515 57.8905C110.365 48.0412 100.638 41.3973 91.1653 42.7393C88.3981 43.4299 85.3749 44.8133 83.2252 46.7417C82.182 47.4323 81.693 48.7116 80.6498 49.738C76.4769 55.8792 77.2019 63.7385 82.3948 68.5177C83.061 69.1817 83.7722 69.798 84.5234 70.3622C80.1819 67.741 78.223 63.7789 77.5423 58.9605C77.5423 57.2413 77.8826 55.5435 78.2441 53.8254C80.6719 46.3008 88.3128 40.831 96.6365 42.2144C98.02 42.5502 99.4036 42.9061 100.809 43.2418C102.554 43.9325 104.278 44.9599 105.662 46.3231C107.046 47.6842 108.089 49.4033 109.132 51.1001C109.834 52.4633 110.175 54.1813 110.516 55.5435C110.579 56.3191 110.579 57.116 110.516 57.8916L110.515 57.8905Z" fill="black"/>
<path fill-rule="evenodd" clip-rule="evenodd" d="M101.872 58.0381C101.872 62.2722 98.3392 65.7094 93.9755 65.7094C89.6129 65.7094 86.0786 62.2722 86.0786 58.0381C86.0786 53.8051 89.6119 50.3679 93.9755 50.3679C98.3392 50.3679 101.872 53.8051 101.872 58.0392V58.0381Z" fill="white"/>
<path fill-rule="evenodd" clip-rule="evenodd" d="M101.916 56.7386C101.809 56.1521 101.639 55.691 101.469 55.0418C100.787 53.6159 99.7871 52.5056 98.4667 51.5621C93.5288 48.2726 86.7384 51.4367 86.0155 57.0542C85.7394 59.2759 86.5266 61.4136 87.9312 63.0488C87.5055 62.6079 87.0376 62.1478 86.7183 61.6229L86.6762 61.6654C86.7183 61.7908 86.889 61.8747 86.9312 62.0001C86.9312 62.0001 86.7605 62.0001 86.8037 61.9789C86.6762 61.8333 86.7826 62.0639 86.9733 62.3773C87.1441 62.6918 87.3569 62.9861 87.6119 63.2581C87.9744 63.6566 88.3569 64.0125 88.9955 64.4949C89.9334 64.9762 90.7627 65.6052 91.8481 65.8984C92.1463 65.9834 92.4866 66.0663 92.8281 66.129C93.1895 66.1927 93.5299 66.214 93.9134 66.214C94.2749 66.214 94.6584 66.1715 95.1263 66.0865C95.6088 66.0292 96.0857 65.9315 96.5521 65.7943C97.5938 65.4781 98.5534 64.9339 99.3624 64.2006C99.7671 63.8244 100.342 63.3421 100.788 62.7131C101.151 62.0012 101.193 61.6442 101.364 61.3297C101.533 61.0152 101.746 60.6592 101.896 60.1769C102.018 59.6046 102.089 59.0225 102.109 58.4376C102.087 57.8511 102.045 57.2847 101.917 56.7397L101.916 56.7386ZM96.8492 52.8414C97.5732 53.26 97.6796 53.3227 97.296 53.0507C97.8503 53.1761 98.1907 53.4906 98.531 53.8051C99.3614 54.7486 100.042 55.8589 100.382 57.1371C100.574 58.5831 100.425 60.0292 99.8082 61.3084C98.7017 63.2571 96.9346 64.5565 94.827 64.9124C94.5931 64.9124 94.3381 64.9124 94.1031 64.9337C94.6995 64.8285 95.0831 64.4513 96.1685 64.0529C97.3382 63.6342 98.6585 61.6856 99.2982 60.553C101.171 57.4717 98.9567 54.6221 96.8492 52.8414ZM92.8481 64.9539C89.613 64.6192 87.1219 61.9576 86.7816 58.8764C87.0787 60.5955 88.1009 61.9151 89.4845 63.0892C89.9745 63.4037 90.6973 63.8436 91.1873 64.1581C92.0177 64.4726 92.5067 64.8083 93.316 64.9549H92.8481V64.9539ZM101.553 59.3587C101.406 60.009 101.256 60.6369 101.106 61.2872C100.787 62.0841 100.319 62.9011 99.6807 63.5503C99.0421 64.2006 98.2328 64.7031 97.4246 65.1855C96.786 65.5202 95.9767 65.6881 95.317 65.8549C94.9335 65.8974 94.4867 65.7295 94.1031 65.7093C98.8292 65.5829 102.064 61.1618 101.362 56.7811C101.021 55.5029 100.34 54.3916 99.51 53.2812C99.1696 52.7989 98.5089 52.5056 98.02 52.0232C95.061 50.1586 91.1452 50.5357 88.9102 52.988C88.5968 53.3102 88.3049 53.6531 88.0366 54.0144C89.2295 52.2538 91.1452 51.0181 93.4435 50.6611C94.2527 50.6399 95.0831 50.7876 95.8914 50.9342C99.4678 52.0232 102.129 55.5029 101.553 59.3598V59.3587Z" fill="#D7DF23"/>
</g>
<defs>
<filter id="filter0_d_8_618" x="0.5" y="0" width="250" height="176" filterUnits="userSpaceOnUse" color-interpolation-filters="sRGB">
<feFlood flood-opacity="0" result="BackgroundImageFix"/>
<feColorMatrix in="SourceAlpha" type="matrix" values="0 0 0 0 0 0 0 0 0 0 0 0 0 0 0 0 0 0 127 0" result="hardAlpha"/>
<feOffset dy="30"/>
<feGaussianBlur stdDeviation="20"/>
<feColorMatrix type="matrix" values="0 0 0 0 0.831373 0 0 0 0 0.85098 0 0 0 0 0.909804 0 0 0 0.2 0"/>
<feBlend mode="normal" in2="BackgroundImageFix" result="effect1_dropShadow_8_618"/>
<feBlend mode="normal" in="SourceGraphic" in2="effect1_dropShadow_8_618" result="shape"/>
</filter>
<clipPath id="clip0_8_618">
<rect width="98" height="34" fill="white" transform="translate(76.5 41)"/>
</clipPath>
</defs>
</svg>
