<svg width="251" height="176" viewBox="0 0 251 176" fill="none" xmlns="http://www.w3.org/2000/svg">
<g filter="url(#filter0_d_8_605)">
<rect x="40.5" y="10" width="170" height="96" rx="16" fill="white"/>
</g>
<path d="M69.9686 64H71.6406V54.056H75.4726V52.48H66.1366V54.056H69.9686V64ZM80.4839 53.912H82.0839V52.312H80.4839V53.912ZM77.2599 53.912H78.8599V52.312H77.2599V53.912ZM79.2119 64.232C79.8359 64.232 80.3879 64.12 80.8679 63.896C81.3533 63.672 81.7533 63.3627 82.0679 62.968V64H83.5559V55.36H81.8679V59.856C81.8679 60.5387 81.7693 61.0853 81.5719 61.496C81.3746 61.9013 81.1079 62.1947 80.7719 62.376C80.4413 62.5573 80.0759 62.648 79.6759 62.648C79.2173 62.648 78.8439 62.5547 78.5559 62.368C78.2679 62.1813 78.0466 61.936 77.8919 61.632C77.7373 61.328 77.6306 61 77.5719 60.648C77.5186 60.2907 77.4919 59.944 77.4919 59.608V55.36H75.7959V60.16C75.7959 60.4267 75.8199 60.736 75.8679 61.088C75.9159 61.44 76.0066 61.8 76.1399 62.168C76.2733 62.536 76.4653 62.8773 76.7159 63.192C76.9719 63.5013 77.3026 63.752 77.7079 63.944C78.1133 64.136 78.6146 64.232 79.2119 64.232ZM85.7917 64H87.4717V58.6C87.4717 58.0133 87.6317 57.5387 87.9517 57.176C88.277 56.8133 88.7037 56.632 89.2317 56.632C89.765 56.632 90.189 56.8133 90.5037 57.176C90.8237 57.5333 90.9837 58.024 90.9837 58.648L90.9757 64H92.6477L92.6557 58.6C92.6557 57.9493 92.829 57.4587 93.1757 57.128C93.5277 56.7973 93.941 56.632 94.4157 56.632C94.9384 56.632 95.3597 56.808 95.6797 57.16C95.9997 57.512 96.1597 57.9973 96.1597 58.616L96.1517 64H97.8237L97.8317 58.216C97.8317 57.288 97.573 56.544 97.0557 55.984C96.5437 55.424 95.8237 55.144 94.8957 55.144C94.3304 55.144 93.8184 55.2693 93.3597 55.52C92.901 55.7653 92.5384 56.1067 92.2717 56.544C92.0424 56.1067 91.7144 55.7653 91.2877 55.52C90.8664 55.2693 90.357 55.144 89.7597 55.144C89.2424 55.144 88.7677 55.248 88.3357 55.456C87.909 55.6587 87.557 55.936 87.2797 56.288V55.36H85.7917V64ZM104.437 53.912H106.037V52.312H104.437V53.912ZM101.213 53.912H102.813V52.312H101.213V53.912ZM103.165 64.232C103.789 64.232 104.341 64.12 104.821 63.896C105.306 63.672 105.706 63.3627 106.021 62.968V64H107.509V55.36H105.821V59.856C105.821 60.5387 105.722 61.0853 105.525 61.496C105.328 61.9013 105.061 62.1947 104.725 62.376C104.394 62.5573 104.029 62.648 103.629 62.648C103.17 62.648 102.797 62.5547 102.509 62.368C102.221 62.1813 102 61.936 101.845 61.632C101.69 61.328 101.584 61 101.525 60.648C101.472 60.2907 101.445 59.944 101.445 59.608V55.36H99.7491V60.16C99.7491 60.4267 99.7731 60.736 99.8211 61.088C99.8691 61.44 99.9597 61.8 100.093 62.168C100.226 62.536 100.418 62.8773 100.669 63.192C100.925 63.5013 101.256 63.752 101.661 63.944C102.066 64.136 102.568 64.232 103.165 64.232ZM109.745 64H111.441V59.504C111.441 58.8213 111.539 58.2773 111.737 57.872C111.939 57.4613 112.206 57.1653 112.537 56.984C112.867 56.8027 113.233 56.712 113.633 56.712C114.091 56.712 114.465 56.8053 114.753 56.992C115.041 57.1787 115.262 57.424 115.417 57.728C115.571 58.032 115.675 58.3627 115.729 58.72C115.787 59.072 115.817 59.416 115.817 59.752V64H117.513V59.2C117.513 58.9333 117.489 58.624 117.441 58.272C117.393 57.92 117.302 57.56 117.169 57.192C117.035 56.824 116.841 56.4853 116.585 56.176C116.334 55.8613 116.006 55.608 115.601 55.416C115.195 55.224 114.694 55.128 114.097 55.128C113.473 55.128 112.918 55.24 112.433 55.464C111.953 55.688 111.555 55.9973 111.241 56.392V55.36H109.745V64ZM124.125 53.912H125.725V52.312H124.125V53.912ZM120.901 53.912H122.501V52.312H120.901V53.912ZM122.853 64.232C123.477 64.232 124.029 64.12 124.509 63.896C124.994 63.672 125.394 63.3627 125.709 62.968V64H127.197V55.36H125.509V59.856C125.509 60.5387 125.41 61.0853 125.213 61.496C125.015 61.9013 124.749 62.1947 124.413 62.376C124.082 62.5573 123.717 62.648 123.317 62.648C122.858 62.648 122.485 62.5547 122.197 62.368C121.909 62.1813 121.687 61.936 121.533 61.632C121.378 61.328 121.271 61 121.213 60.648C121.159 60.2907 121.133 59.944 121.133 59.608V55.36H119.437V60.16C119.437 60.4267 119.461 60.736 119.509 61.088C119.557 61.44 119.647 61.8 119.781 62.168C119.914 62.536 120.106 62.8773 120.357 63.192C120.613 63.5013 120.943 63.752 121.349 63.944C121.754 64.136 122.255 64.232 122.853 64.232ZM137.355 64.24C138.475 64.24 139.425 64.0027 140.203 63.528C140.987 63.048 141.585 62.3893 141.995 61.552C142.406 60.7147 142.611 59.7627 142.611 58.696C142.611 58.6533 142.609 58.5547 142.603 58.4C142.598 58.2453 142.59 58.1173 142.579 58.016H138.563V59.36H140.803C140.686 60.4267 140.345 61.2453 139.779 61.816C139.214 62.3813 138.438 62.6587 137.451 62.648C136.23 62.6373 135.31 62.2293 134.691 61.424C134.078 60.6187 133.774 59.5573 133.779 58.24C133.785 57.36 133.921 56.5893 134.187 55.928C134.459 55.2613 134.867 54.744 135.411 54.376C135.955 54.008 136.635 53.8267 137.451 53.832C138.246 53.8373 138.905 54.0453 139.427 54.456C139.95 54.8667 140.326 55.416 140.555 56.104L142.251 55.8C141.958 54.6907 141.406 53.8213 140.595 53.192C139.79 52.5627 138.71 52.248 137.355 52.248C136.305 52.248 135.377 52.4907 134.571 52.976C133.766 53.456 133.137 54.144 132.683 55.04C132.23 55.9307 132.003 56.9973 132.003 58.24C132.003 59.4987 132.235 60.576 132.699 61.472C133.163 62.368 133.798 63.0533 134.603 63.528C135.409 64.0027 136.326 64.24 137.355 64.24ZM148.782 53.912H150.382V52.312H148.782V53.912ZM145.558 53.912H147.158V52.312H145.558V53.912ZM147.958 64.24C148.817 64.24 149.563 64.048 150.198 63.664C150.833 63.2747 151.323 62.7387 151.67 62.056C152.022 61.368 152.198 60.5733 152.198 59.672C152.198 58.7813 152.025 57.9947 151.678 57.312C151.331 56.624 150.841 56.088 150.206 55.704C149.571 55.3147 148.822 55.12 147.958 55.12C147.11 55.12 146.369 55.312 145.734 55.696C145.099 56.08 144.606 56.6133 144.254 57.296C143.902 57.9787 143.726 58.7707 143.726 59.672C143.726 60.5627 143.899 61.352 144.246 62.04C144.593 62.728 145.081 63.2667 145.71 63.656C146.345 64.0453 147.094 64.24 147.958 64.24ZM147.958 62.664C147.153 62.664 146.542 62.3947 146.126 61.856C145.71 61.312 145.502 60.584 145.502 59.672C145.502 58.792 145.702 58.0773 146.102 57.528C146.502 56.9733 147.121 56.696 147.958 56.696C148.774 56.696 149.387 56.9653 149.798 57.504C150.214 58.0427 150.422 58.7653 150.422 59.672C150.422 60.5573 150.217 61.2773 149.806 61.832C149.401 62.3867 148.785 62.664 147.958 62.664ZM153.956 64H155.644V59.64C155.644 59.1333 155.724 58.664 155.884 58.232C156.044 57.8 156.327 57.4533 156.732 57.192C157.02 57.0053 157.337 56.896 157.684 56.864C158.031 56.832 158.343 56.8533 158.62 56.928V55.36C158.231 55.2853 157.817 55.288 157.38 55.368C156.948 55.448 156.569 55.608 156.244 55.848C155.924 56.0613 155.657 56.3573 155.444 56.736V55.36H153.956V64Z" fill="#F84646"/>
<g clip-path="url(#clip0_8_605)">
<path d="M172 58H183" stroke="#F84646" stroke-width="2" stroke-linecap="round" stroke-linejoin="round"/>
<path d="M178.5 53.5L183 58L178.5 62.5" stroke="#F84646" stroke-width="2" stroke-linecap="round" stroke-linejoin="round"/>
</g>
<defs>
<filter id="filter0_d_8_605" x="0.5" y="0" width="250" height="176" filterUnits="userSpaceOnUse" color-interpolation-filters="sRGB">
<feFlood flood-opacity="0" result="BackgroundImageFix"/>
<feColorMatrix in="SourceAlpha" type="matrix" values="0 0 0 0 0 0 0 0 0 0 0 0 0 0 0 0 0 0 127 0" result="hardAlpha"/>
<feOffset dy="30"/>
<feGaussianBlur stdDeviation="20"/>
<feColorMatrix type="matrix" values="0 0 0 0 0.831373 0 0 0 0 0.85098 0 0 0 0 0.909804 0 0 0 0.2 0"/>
<feBlend mode="normal" in2="BackgroundImageFix" result="effect1_dropShadow_8_605"/>
<feBlend mode="normal" in="SourceGraphic" in2="effect1_dropShadow_8_605" result="shape"/>
</filter>
<clipPath id="clip0_8_605">
<rect width="16" height="16" fill="white" transform="translate(169.5 50)"/>
</clipPath>
</defs>
</svg>
